<?xml version="1.0" encoding="utf-8"?>
<!-- Generator: Adobe Illustrator 26.0.3, SVG Export Plug-In . SVG Version: 6.00 Build 0)  -->
<svg version="1.1" id="Layer_1" xmlns="http://www.w3.org/2000/svg" xmlns:xlink="http://www.w3.org/1999/xlink" x="0px" y="0px"
	 viewBox="0 0 1020.47 737.01" style="enable-background:new 0 0 1020.47 737.01;" xml:space="preserve">
<style type="text/css">
	.st0{fill:#9FB7FF;}
	.st1{fill:#007DFE;}
	.st2{fill:#4A55FF;}
	.st3{fill:#FFFF00;}
	.st4{fill:#FF0000;}
	.st5{fill:#6D0CFF;}
	.st6{fill:#FFFFFF;}
</style>
<g>
	<g>
		<g>
			<polygon class="st0" points="303.24,659.68 337.11,475.73 406.14,502.96 379.86,429.82 559.7,397.21 381.76,363.01 
				404.87,292.72 336.48,317.42 303.24,135.36 269.99,317.42 201.6,292.72 224.71,363.01 46.77,397.21 226.61,429.82 200.33,502.96 
				269.36,475.73 			"/>
		</g>
		<g>
			<path d="M303.24,660.77c-0.53,0-0.98-0.38-1.07-0.89l-33.64-182.66l-67.79,26.75c-0.4,0.16-0.85,0.07-1.16-0.23
				s-0.41-0.75-0.27-1.15l25.84-71.93L46.58,398.28c-0.52-0.09-0.89-0.54-0.89-1.07c0-0.52,0.37-0.98,0.88-1.07l176.72-33.96
				l-22.73-69.11c-0.13-0.4-0.02-0.83,0.28-1.12c0.3-0.29,0.74-0.38,1.13-0.24l67.18,24.26l33.01-180.79
				c0.09-0.52,0.55-0.89,1.07-0.89s0.98,0.38,1.07,0.89l33.01,180.79l67.18-24.26c0.39-0.14,0.83-0.05,1.13,0.24
				c0.3,0.29,0.41,0.73,0.28,1.12l-22.73,69.11l176.73,33.96c0.51,0.1,0.89,0.55,0.88,1.07s-0.38,0.97-0.89,1.07l-178.58,32.38
				l25.84,71.93c0.14,0.4,0.04,0.85-0.27,1.15c-0.31,0.3-0.76,0.39-1.16,0.23l-67.79-26.75l-33.64,182.66
				C304.21,660.4,303.76,660.77,303.24,660.77z M269.36,474.64c0.18,0,0.36,0.05,0.53,0.14c0.28,0.16,0.48,0.43,0.54,0.75
				l32.81,178.14l32.81-178.14c0.06-0.32,0.26-0.6,0.54-0.75c0.28-0.16,0.62-0.18,0.93-0.06l66.79,26.35l-25.47-70.88
				c-0.11-0.3-0.08-0.63,0.08-0.91c0.16-0.28,0.43-0.47,0.75-0.53l174.11-31.57l-172.22-33.1c-0.31-0.06-0.57-0.25-0.73-0.52
				c-0.16-0.27-0.19-0.59-0.1-0.89l22.41-68.17l-66.29,23.94c-0.3,0.11-0.63,0.08-0.91-0.08c-0.28-0.16-0.47-0.43-0.53-0.75
				l-32.17-176.19l-32.17,176.19c-0.06,0.31-0.25,0.59-0.53,0.75c-0.28,0.16-0.61,0.19-0.91,0.08l-66.29-23.94l22.41,68.17
				c0.1,0.3,0.06,0.62-0.1,0.89c-0.16,0.27-0.43,0.46-0.73,0.52L52.7,397.17l174.11,31.57c0.32,0.06,0.59,0.25,0.75,0.53
				c0.16,0.28,0.19,0.61,0.08,0.91l-25.47,70.88l66.79-26.35C269.09,474.66,269.22,474.64,269.36,474.64z"/>
		</g>
	</g>
	<g>
		<g>
			<polygon class="st1" points="303.24,135.36 303.24,397.21 404.87,292.72 336.48,317.42 			"/>
		</g>
		<g>
			<path d="M303.24,398.29c-0.14,0-0.28-0.03-0.41-0.08c-0.41-0.17-0.68-0.57-0.68-1.01V135.36c0-0.56,0.43-1.03,0.99-1.08
				c0.56-0.05,1.07,0.33,1.17,0.89l33.01,180.79l67.18-24.26c0.48-0.17,1.01,0.01,1.28,0.43c0.27,0.43,0.22,0.99-0.13,1.35
				L304.02,397.96C303.81,398.18,303.52,398.29,303.24,398.29z M304.32,147.38v247.15l96.47-99.18l-63.94,23.09
				c-0.3,0.11-0.63,0.08-0.91-0.08c-0.28-0.16-0.47-0.43-0.53-0.75L304.32,147.38z"/>
		</g>
	</g>
	<g>
		<g>
			<polygon class="st1" points="46.77,397.21 303.24,397.21 200.33,502.96 226.61,429.82 			"/>
		</g>
		<g>
			<path d="M200.33,504.05c-0.2,0-0.4-0.05-0.58-0.17c-0.43-0.27-0.62-0.81-0.45-1.29l25.84-71.93L46.58,398.28
				c-0.55-0.1-0.94-0.61-0.89-1.17c0.05-0.56,0.52-0.99,1.08-0.99h256.46c0.44,0,0.83,0.26,1,0.67c0.17,0.4,0.08,0.87-0.22,1.18
				l-102.9,105.75C200.9,503.93,200.62,504.05,200.33,504.05z M58.88,398.29l167.93,30.45c0.32,0.06,0.59,0.25,0.75,0.53
				c0.16,0.28,0.19,0.61,0.08,0.91l-24.58,68.41l97.6-100.3H58.88z"/>
		</g>
	</g>
	<g>
		<g>
			<polygon class="st2" points="303.24,659.68 303.24,397.21 559.7,397.21 379.86,429.82 406.14,502.96 337.11,475.73 			"/>
		</g>
		<g>
			<path d="M303.24,660.77c-0.03,0-0.07,0-0.1,0c-0.56-0.05-0.99-0.52-0.99-1.08V397.21c0-0.6,0.49-1.09,1.09-1.09H559.7
				c0.56,0,1.03,0.43,1.08,0.99c0.05,0.56-0.34,1.07-0.89,1.17l-178.58,32.38l25.84,71.93c0.14,0.4,0.04,0.85-0.27,1.15
				c-0.31,0.3-0.76,0.39-1.16,0.23l-67.79-26.75l-33.64,182.66C304.21,660.4,303.76,660.77,303.24,660.77z M304.32,398.29v249.47
				l31.72-172.23c0.06-0.32,0.26-0.6,0.54-0.75c0.28-0.16,0.62-0.18,0.93-0.06l66.79,26.35l-25.47-70.88
				c-0.11-0.3-0.08-0.63,0.08-0.91c0.16-0.28,0.43-0.47,0.75-0.53l167.93-30.45H304.32z"/>
		</g>
	</g>
	<g>
		<g>
			<polygon class="st1" points="337.11,475.73 406.14,502.96 303.24,397.21 			"/>
		</g>
		<g>
			<path d="M406.14,504.05c-0.13,0-0.27-0.02-0.4-0.08l-69.02-27.23c-0.27-0.11-0.49-0.32-0.6-0.58l-33.88-78.52
				c-0.21-0.48-0.04-1.04,0.39-1.34c0.44-0.29,1.02-0.23,1.39,0.15l102.9,105.75c0.36,0.37,0.41,0.94,0.13,1.36
				C406.84,503.87,406.49,504.05,406.14,504.05z M337.93,474.88l63.89,25.2l-95.25-97.89L337.93,474.88z"/>
		</g>
	</g>
	<g>
		<path d="M269.36,476.82c-0.14,0-0.29-0.03-0.43-0.09c-0.55-0.24-0.81-0.88-0.57-1.43l33.59-77.85L200.82,293.48
			c-0.42-0.43-0.41-1.12,0.02-1.54c0.43-0.42,1.12-0.41,1.54,0.02l101.63,104.48c0.31,0.32,0.39,0.79,0.22,1.19l-33.88,78.52
			C270.18,476.57,269.78,476.82,269.36,476.82z"/>
	</g>
	<g>
		<path d="M303.24,398.29c-0.44,0-0.84-0.26-1-0.67l-33.24-79.79c-0.23-0.55,0.03-1.19,0.59-1.42c0.56-0.23,1.19,0.03,1.42,0.59
			l32.24,77.38L335.48,317c0.23-0.55,0.87-0.82,1.42-0.59c0.55,0.23,0.82,0.87,0.59,1.42l-33.24,79.79
			C304.07,398.03,303.68,398.29,303.24,398.29z"/>
	</g>
	<g>
		<path class="st3" d="M922.43,449.13H225.47c-28.92,0-52.36-23.44-52.36-52.36v0c0-28.92,23.44-52.36,52.36-52.36h696.96
			c28.92,0,52.36,23.44,52.36,52.36v0C974.79,425.69,951.34,449.13,922.43,449.13z"/>
	</g>
	<g>
		<g>
			<path class="st4" d="M530.3,301.37h7.76l10.07,21.95h0.08v-21.95h7.11v35.62h-7.76l-10.07-22.2h-0.08v22.2h-7.11V301.37z"/>
		</g>
		<g>
			<path class="st4" d="M570.27,310.35c6.54,0,11.13,5.94,11.13,13.72c0,7.78-4.59,13.67-11.13,13.67
				c-6.54,0-11.09-5.89-11.09-13.67C559.18,316.29,563.73,310.35,570.27,310.35z M570.27,331.25c3.25,0,4.22-3.84,4.22-7.18
				c0-3.29-0.98-7.23-4.22-7.23c-3.21,0-4.18,3.94-4.18,7.23C566.09,327.41,567.06,331.25,570.27,331.25z"/>
		</g>
		<g>
			<path class="st4" d="M585.27,311.1h6.7v4.54h0.08c1.02-3.34,3.37-5.04,6.34-5.04c0.53,0,1.1,0.05,1.62,0.2v7.73
				c-0.93-0.35-1.71-0.5-2.64-0.5c-3.41,0-5.2,2.89-5.2,6.14v12.82h-6.91V311.1z"/>
		</g>
		<g>
			<path class="st4" d="M622.48,336.99h-6.58V334h-0.08c-1.38,2.49-3.33,3.74-5.81,3.74c-6.62,0-9.42-6.93-9.42-14.27
				c0-6.73,2.93-13.12,8.9-13.12c2.56,0,4.59,1.2,6.01,3.54h0.08v-12.52h6.91V336.99z M607.49,323.77c0,3.54,1.1,7.48,4.22,7.48
				c3.37,0,4.1-3.94,4.1-7.23c0-3.74-1.1-7.18-4.1-7.18C608.59,316.83,607.49,320.48,607.49,323.77z"/>
		</g>
		<g>
			<path class="st4" d="M632.56,328.46c0,1.35,0.45,2.25,1.14,2.89c0.65,0.6,1.58,0.9,2.56,0.9c1.3,0,3.25-0.75,3.25-2.74
				c0-2.05-2.19-2.34-3.37-2.74c-4.35-1.35-9.79-1.5-9.79-8.48c0-6.19,5.48-7.93,9.63-7.93c4.59,0,9.51,1.65,9.71,8.38h-6.38
				c0-1.05-0.28-1.8-0.89-2.25c-0.53-0.45-1.26-0.65-2.19-0.65c-1.14,0-2.97,0.15-2.97,1.95c0,2.39,4.63,2.94,7.8,3.74
				c4.22,1.05,5.36,4.84,5.36,6.98c0,6.93-5.36,9.23-10.11,9.23c-5.04,0-10.11-2.05-10.32-9.28H632.56z"/>
		</g>
		<g>
			<path class="st4" d="M663.51,320.58c0-2.19-1.63-3.74-3.37-3.74c-3.86,0-4.47,4.04-4.47,7.63c0,3.34,1.18,6.78,4.1,6.78
				c2.44,0,3.62-1.65,3.94-4.44h6.7c-0.65,6.98-4.96,10.93-10.6,10.93c-6.34,0-11.05-5.29-11.05-13.27
				c0-8.23,4.27-14.12,11.05-14.12c5.28,0,9.87,3.44,10.4,10.23H663.51z"/>
		</g>
		<g>
			<path class="st4" d="M673.88,301.37h6.91v13.27h0.08c1.1-2.64,3.9-4.29,6.42-4.29c7.03,0,7.6,6.29,7.6,10.03v16.61h-6.91v-12.52
				v-2.59c0-2.49-0.69-4.54-3.45-4.54c-2.6,0-3.74,2.74-3.74,5.54v14.12h-6.91V301.37z"/>
		</g>
		<g>
			<path class="st4" d="M720.43,336.99h-6.7v-3.54h-0.08c-1.3,2.64-3.98,4.29-6.42,4.29c-6.05,0-7.8-4.29-7.8-11.08V311.1h6.91
				v15.02c0,3.44,1.18,4.64,3.41,4.64c1.46,0,3.78-1.2,3.78-5.79V311.1h6.91V336.99z"/>
		</g>
		<g>
			<path class="st4" d="M725.31,301.37h6.91v35.62h-6.91V301.37z"/>
		</g>
		<g>
			<path class="st4" d="M742.98,326.11c0.12,3.59,1.79,5.89,4.71,5.89c1.67,0,3.29-0.9,3.94-2.84h6.46
				c-1.3,5.99-5.77,8.58-10.48,8.58c-6.87,0-11.54-5.09-11.54-13.77c0-7.93,5.16-13.62,11.37-13.62c7.56,0,11.33,6.98,11.01,15.76
				H742.98z M751.55,321.37c-0.12-2.94-1.79-5.29-4.1-5.29c-2.44,0-4.02,2.1-4.47,5.29H751.55z"/>
		</g>
		<g>
			<path class="st4" d="M774.92,301.37h7.76l10.07,21.95h0.08v-21.95h7.11v35.62h-7.76l-10.07-22.2h-0.08v22.2h-7.11V301.37z"/>
		</g>
		<g>
			<path class="st4" d="M810.71,326.11c0.12,3.59,1.79,5.89,4.71,5.89c1.67,0,3.29-0.9,3.94-2.84h6.46
				c-1.3,5.99-5.77,8.58-10.48,8.58c-6.87,0-11.54-5.09-11.54-13.77c0-7.93,5.16-13.62,11.37-13.62c7.56,0,11.33,6.98,11.01,15.76
				H810.71z M819.28,321.37c-0.12-2.94-1.79-5.29-4.1-5.29c-2.44,0-4.02,2.1-4.47,5.29H819.28z"/>
		</g>
		<g>
			<path class="st4" d="M850.6,336.99h-6.7v-3.54h-0.08c-1.3,2.64-3.98,4.29-6.42,4.29c-6.05,0-7.8-4.29-7.8-11.08V311.1h6.91v15.02
				c0,3.44,1.18,4.64,3.41,4.64c1.46,0,3.78-1.2,3.78-5.79V311.1h6.91V336.99z"/>
		</g>
		<g>
			<path class="st4" d="M855.48,311.1h6.7v4.54h0.08c1.02-3.34,3.37-5.04,6.34-5.04c0.53,0,1.1,0.05,1.62,0.2v7.73
				c-0.93-0.35-1.71-0.5-2.64-0.5c-3.41,0-5.2,2.89-5.2,6.14v12.82h-6.91V311.1z"/>
		</g>
		<g>
			<path class="st4" d="M877.7,326.11c0.12,3.59,1.79,5.89,4.71,5.89c1.67,0,3.29-0.9,3.94-2.84h6.46
				c-1.3,5.99-5.77,8.58-10.48,8.58c-6.87,0-11.54-5.09-11.54-13.77c0-7.93,5.16-13.62,11.37-13.62c7.56,0,11.33,6.98,11.01,15.76
				H877.7z M886.27,321.37c-0.12-2.94-1.79-5.29-4.1-5.29c-2.44,0-4.02,2.1-4.47,5.29H886.27z"/>
		</g>
		<g>
			<path class="st4" d="M917.6,336.99h-6.7v-3.54h-0.08c-1.3,2.64-3.98,4.29-6.42,4.29c-6.05,0-7.8-4.29-7.8-11.08V311.1h6.91v15.02
				c0,3.44,1.18,4.64,3.41,4.64c1.46,0,3.78-1.2,3.78-5.79V311.1h6.91V336.99z"/>
		</g>
		<g>
			<path class="st4" d="M934.95,316.58h-4.27v11.77c0,2.04,0.97,2.49,2.48,2.49c0.61,0,1.18-0.1,1.79-0.1v6.24
				c-1.26,0.05-2.52,0.25-3.78,0.25c-5.89,0-7.39-2.14-7.39-9.13v-11.52h-3.49v-5.49h3.49v-7.83h6.91v7.83h4.27V316.58z"/>
		</g>
	</g>
	<g>
		<g>
			<path d="M418.49,496.92h-6.91v-6.49h6.91V496.92z M411.59,500.16h6.91v25.89h-6.91V500.16z"/>
		</g>
		<g>
			<path d="M423.37,500.16h6.7v3.54h0.08c1.3-2.64,4.1-4.29,6.62-4.29c7.03,0,7.6,6.29,7.6,10.03v16.61h-6.91v-12.52v-2.59
				c0-2.49-0.69-4.54-3.45-4.54c-2.6,0-3.74,2.74-3.74,5.54v14.12h-6.91V500.16z"/>
		</g>
		<g>
			<path d="M448.96,500.16h6.7v3.54h0.08c1.3-2.64,4.1-4.29,6.62-4.29c7.03,0,7.6,6.29,7.6,10.03v16.61h-6.91v-12.52v-2.59
				c0-2.49-0.69-4.54-3.45-4.54c-2.6,0-3.74,2.74-3.74,5.54v14.12h-6.91V500.16z"/>
		</g>
		<g>
			<path d="M484.63,499.41c6.54,0,11.13,5.94,11.13,13.72s-4.59,13.67-11.13,13.67c-6.54,0-11.09-5.89-11.09-13.67
				S478.09,499.41,484.63,499.41z M484.63,520.31c3.25,0,4.22-3.84,4.22-7.18c0-3.29-0.98-7.23-4.22-7.23
				c-3.21,0-4.18,3.94-4.18,7.23C480.45,516.47,481.42,520.31,484.63,520.31z"/>
		</g>
		<g>
			<path d="M511.93,526.05h-7.96l-7.03-25.89h7.19l3.86,17.11h0.08l3.9-17.11H519L511.93,526.05z"/>
		</g>
		<g>
			<path d="M520.91,508.14c0.12-3.39,1.38-5.59,3.29-6.93c1.91-1.35,4.27-1.8,6.7-1.8c5,0,9.83,1.35,9.83,8.68v11.32
				c0,2.2,0,4.59,0.81,6.64h-6.95c-0.28-0.8-0.28-1.6-0.41-2.44c-1.79,2.34-4.39,3.19-6.95,3.19c-4.06,0-7.19-2.49-7.19-7.83
				c0-8.38,7.47-7.78,12.27-8.98c1.18-0.35,1.83-0.8,1.83-2.39c0-1.95-1.91-2.69-3.33-2.69c-1.99,0-3.13,1.1-3.45,3.24H520.91z
				 M529.85,521.56c3.29,0,4.39-2.25,4.22-7.63c-0.98,0.75-2.76,0.85-4.27,1.4c-1.58,0.45-2.84,1.25-2.84,3.29
				C526.97,520.76,528.27,521.56,529.85,521.56z"/>
		</g>
		<g>
			<path d="M558.01,505.65h-4.27v11.77c0,2.04,0.97,2.49,2.48,2.49c0.61,0,1.18-0.1,1.79-0.1v6.24c-1.26,0.05-2.52,0.25-3.78,0.25
				c-5.89,0-7.39-2.15-7.39-9.13v-11.52h-3.49v-5.49h3.49v-7.83h6.91v7.83h4.27V505.65z"/>
		</g>
		<g>
			<path d="M568.24,496.92h-6.91v-6.49h6.91V496.92z M561.34,500.16h6.91v25.89h-6.91V500.16z"/>
		</g>
		<g>
			<path d="M585.67,526.05h-7.96l-7.03-25.89h7.19l3.86,17.11h0.08l3.9-17.11h7.03L585.67,526.05z"/>
		</g>
		<g>
			<path d="M607.37,516.07v-7.19H620v7.19H607.37z"/>
		</g>
		<g>
			<path d="M642.43,517.52c0,1.35,0.45,2.24,1.14,2.89c0.65,0.6,1.58,0.9,2.56,0.9c1.3,0,3.25-0.75,3.25-2.74
				c0-2.04-2.19-2.34-3.37-2.74c-4.35-1.35-9.79-1.5-9.79-8.48c0-6.19,5.48-7.93,9.63-7.93c4.59,0,9.51,1.65,9.71,8.38h-6.38
				c0-1.05-0.28-1.8-0.89-2.24c-0.53-0.45-1.26-0.65-2.19-0.65c-1.14,0-2.97,0.15-2.97,1.95c0,2.39,4.63,2.94,7.8,3.74
				c4.22,1.05,5.36,4.84,5.36,6.99c0,6.93-5.36,9.23-10.11,9.23c-5.04,0-10.11-2.04-10.32-9.28H642.43z"/>
		</g>
		<g>
			<path d="M669.73,499.41c6.54,0,11.13,5.94,11.13,13.72s-4.59,13.67-11.13,13.67c-6.54,0-11.09-5.89-11.09-13.67
				S663.19,499.41,669.73,499.41z M669.73,520.31c3.25,0,4.22-3.84,4.22-7.18c0-3.29-0.98-7.23-4.22-7.23
				c-3.21,0-4.18,3.94-4.18,7.23C665.55,516.47,666.52,520.31,669.73,520.31z"/>
		</g>
		<g>
			<path d="M683.06,519.46l10.52-12.82h-9.67v-6.49h18.44v6.44l-10.52,12.97h11.29v6.49h-20.07V519.46z"/>
		</g>
		<g>
			<path d="M713.45,496.92h-6.91v-6.49h6.91V496.92z M706.54,500.16h6.91v25.89h-6.91V500.16z"/>
		</g>
		<g>
			<path d="M718.04,508.14c0.12-3.39,1.38-5.59,3.29-6.93c1.91-1.35,4.27-1.8,6.7-1.8c5,0,9.83,1.35,9.83,8.68v11.32
				c0,2.2,0,4.59,0.81,6.64h-6.95c-0.28-0.8-0.28-1.6-0.41-2.44c-1.79,2.34-4.39,3.19-6.95,3.19c-4.06,0-7.19-2.49-7.19-7.83
				c0-8.38,7.47-7.78,12.27-8.98c1.18-0.35,1.83-0.8,1.83-2.39c0-1.95-1.91-2.69-3.33-2.69c-1.99,0-3.13,1.1-3.45,3.24H718.04z
				 M726.98,521.56c3.29,0,4.39-2.25,4.22-7.63c-0.98,0.75-2.76,0.85-4.27,1.4c-1.58,0.45-2.84,1.25-2.84,3.29
				C724.09,520.76,725.39,521.56,726.98,521.56z"/>
		</g>
		<g>
			<path d="M742.66,490.43h6.91v35.62h-6.91V490.43z"/>
		</g>
		<g>
			<path d="M766.87,516.07v-7.19h12.63v7.19H766.87z"/>
		</g>
		<g>
			<path d="M809.12,526.05h-7.96l-7.03-25.89h7.19l3.86,17.11h0.08l3.9-17.11h7.03L809.12,526.05z"/>
		</g>
		<g>
			<path d="M824.28,515.18c0.12,3.59,1.79,5.89,4.71,5.89c1.67,0,3.29-0.9,3.94-2.84h6.46c-1.3,5.99-5.77,8.58-10.48,8.58
				c-6.87,0-11.54-5.09-11.54-13.77c0-7.93,5.16-13.62,11.37-13.62c7.56,0,11.33,6.99,11.01,15.77H824.28z M832.85,510.44
				c-0.12-2.94-1.79-5.29-4.1-5.29c-2.44,0-4.02,2.1-4.47,5.29H832.85z"/>
		</g>
		<g>
			<path d="M843.46,500.16h6.7v4.54h0.08c1.02-3.34,3.37-5.04,6.34-5.04c0.53,0,1.1,0.05,1.62,0.2v7.73
				c-0.93-0.35-1.71-0.5-2.64-0.5c-3.41,0-5.2,2.89-5.2,6.14v12.82h-6.91V500.16z"/>
		</g>
		<g>
			<path d="M865.68,515.18c0.12,3.59,1.79,5.89,4.71,5.89c1.67,0,3.29-0.9,3.94-2.84h6.46c-1.3,5.99-5.77,8.58-10.48,8.58
				c-6.87,0-11.54-5.09-11.54-13.77c0-7.93,5.16-13.62,11.37-13.62c7.56,0,11.33,6.99,11.01,15.77H865.68z M874.25,510.44
				c-0.12-2.94-1.79-5.29-4.1-5.29c-2.44,0-4.02,2.1-4.47,5.29H874.25z"/>
		</g>
		<g>
			<path d="M891.76,496.92h-6.91v-6.49h6.91V496.92z M884.86,500.16h6.91v25.89h-6.91V500.16z"/>
		</g>
		<g>
			<path d="M896.64,500.16h6.7v3.54h0.08c1.3-2.64,4.1-4.29,6.62-4.29c7.03,0,7.6,6.29,7.6,10.03v16.61h-6.91v-12.52v-2.59
				c0-2.49-0.69-4.54-3.45-4.54c-2.6,0-3.74,2.74-3.74,5.54v14.12h-6.91V500.16z"/>
		</g>
		<g>
			<path d="M934.95,505.65h-4.27v11.77c0,2.04,0.97,2.49,2.48,2.49c0.61,0,1.18-0.1,1.79-0.1v6.24c-1.26,0.05-2.52,0.25-3.78,0.25
				c-5.89,0-7.39-2.15-7.39-9.13v-11.52h-3.49v-5.49h3.49v-7.83h6.91v7.83h4.27V505.65z"/>
		</g>
	</g>
	<g>
		<g>
			<path class="st5" d="M212.77,364.42h46.78v12.77H227.4v15.96h27.86v11.8H227.4v28.54h-14.63V364.42z"/>
		</g>
		<g>
			<path class="st5" d="M297.85,362.77c20.5,0,32.71,15.96,32.71,36.48c0,19.93-12.21,35.9-32.71,35.9
				c-20.5,0-32.71-15.97-32.71-35.9C265.14,378.74,277.35,362.77,297.85,362.77z M297.85,422.37c13.14,0,18.08-11.61,18.08-23.12
				c0-12.09-4.94-23.7-18.08-23.7c-13.14,0-18.08,11.61-18.08,23.7C279.77,410.76,284.71,422.37,297.85,422.37z M281.73,345.94
				h12.58v11.32h-12.58V345.94z M300.92,345.94h12.58v11.32h-12.58V345.94z"/>
		</g>
		<g>
			<path class="st5" d="M340.53,364.42h35.88c11.93,0,19.48,8.61,19.48,19.06c0,8.13-3.07,14.22-10.53,17.32v0.19
				c7.18,2.03,9.23,9.09,9.69,16.16c0.28,4.35,0.09,12.58,2.8,16.35h-14.63c-1.68-4.35-1.58-11.03-2.33-16.54
				c-1.03-7.26-3.73-10.45-11.09-10.45h-14.63v26.99h-14.63V364.42z M355.16,395.67h16.03c6.62,0,10.06-2.9,10.06-9.87
				c0-6.68-3.45-9.58-10.06-9.58h-16.03V395.67z"/>
		</g>
		<g>
			<path class="st5" d="M407.81,364.42h28.7c17.24,0,30.19,11.32,30.19,34.15c0,20.03-9.88,34.93-30.19,34.93h-28.7V364.42z
				 M422.44,420.73h13.05c8.48,0,16.59-5.42,16.59-20.71c0-13.93-4.75-22.83-19.2-22.83h-10.44V420.73z"/>
		</g>
		<g>
			<path class="st5" d="M476.86,364.42h49.76v12.77h-35.13v14.8h32.24v11.8h-32.24v16.93h35.88v12.77h-50.51V364.42z"/>
		</g>
		<g>
			<path class="st5" d="M537.24,364.42h35.88c11.93,0,19.48,8.61,19.48,19.06c0,8.13-3.07,14.22-10.53,17.32v0.19
				c7.18,2.03,9.23,9.09,9.69,16.16c0.28,4.35,0.09,12.58,2.8,16.35h-14.63c-1.68-4.35-1.58-11.03-2.33-16.54
				c-1.03-7.26-3.73-10.45-11.09-10.45h-14.63v26.99h-14.63V364.42z M551.87,395.67h16.03c6.62,0,10.06-2.9,10.06-9.87
				c0-6.68-3.45-9.58-10.06-9.58h-16.03V395.67z"/>
		</g>
		<g>
			<path class="st5" d="M635.45,433.5h-16.49l-21.62-69.08h15.1l14.82,48.57h0.19l15-48.57h15.1L635.45,433.5z"/>
		</g>
		<g>
			<path class="st5" d="M663.22,364.42h49.76v12.77h-35.13v14.8h32.24v11.8h-32.24v16.93h35.88v12.77h-50.51V364.42z"/>
		</g>
		<g>
			<path class="st5" d="M723.61,364.42h35.88c11.93,0,19.48,8.61,19.48,19.06c0,8.13-3.07,14.22-10.53,17.32v0.19
				c7.18,2.03,9.23,9.09,9.69,16.16c0.28,4.35,0.09,12.58,2.8,16.35h-14.63c-1.68-4.35-1.58-11.03-2.33-16.54
				c-1.03-7.26-3.73-10.45-11.09-10.45h-14.63v26.99h-14.63V364.42z M738.24,395.67h16.03c6.62,0,10.06-2.9,10.06-9.87
				c0-6.68-3.45-9.58-10.06-9.58h-16.03V395.67z"/>
		</g>
		<g>
			<path class="st5" d="M790.88,364.42h49.76v12.77h-35.13v14.8h32.24v11.8h-32.24v16.93h35.88v12.77h-50.51V364.42z"/>
		</g>
		<g>
			<path class="st5" d="M851.27,364.42h14.63v69.08h-14.63V364.42z"/>
		</g>
		<g>
			<path class="st5" d="M878.76,364.42h14.54l27.77,46.35h0.19v-46.35h13.7v69.08h-14.63l-27.68-46.25h-0.19v46.25h-13.7V364.42z"/>
		</g>
	</g>
	<g>
		<path class="st4" d="M303.24,76.79c0,0-3.8,0-7.92,7.92c-4.12,7.92-6.02,7.92-6.02,14.25c0,6.33,0,10.13,0,10.13
			s-3.8-8.55-11.71-4.75c-7.92,3.8-12.03,19.95-12.03,19.95s9.5-9.82,16.78-7.92c7.28,1.9,12.98,9.82,12.98,9.82h-6.97v9.18H295
			c0,0-3.17,11.08-18.68,16.78c0,0,4.43,9.5,11.4,7.28s15.51-24.06,15.51-24.06"/>
		<path d="M285.64,160.31c-6.03,0-9.77-7.85-9.81-7.93l-0.25-0.54l0.56-0.21c12.81-4.7,17.08-13.22,18.08-15.71h-6.41v-10.28h6.39
			c-1.7-2.08-6.41-7.27-11.99-8.73c-6.88-1.8-16.15,7.67-16.25,7.77l-1.44,1.49l0.51-2.01c0.17-0.67,4.27-16.44,12.33-20.31
			c2.39-1.15,4.66-1.33,6.76-0.56c2.19,0.8,3.72,2.48,4.64,3.79v-8.11c0-4.46,0.94-5.94,2.81-8.89c0.87-1.38,1.96-3.09,3.27-5.61
			c4.22-8.12,8.24-8.21,8.4-8.21l0.01,1.1c-0.04,0-3.57,0.18-7.43,7.62c-1.33,2.56-2.43,4.3-3.31,5.69
			c-1.81,2.86-2.64,4.16-2.64,8.3v12.71l-1.05-2.36c-0.02-0.04-1.72-3.77-5.07-5c-1.81-0.66-3.79-0.49-5.9,0.52
			c-5.98,2.87-9.8,13.28-11.17,17.64c3.01-2.71,9.99-8.16,15.82-6.64c7.39,1.93,13.05,9.7,13.29,10.03l0.63,0.87h-7.49v8.08h6.83
			l-0.2,0.7c-0.13,0.46-3.34,11.14-18.44,16.93c1.04,1.91,4.96,8.2,10.46,6.46c6.64-2.11,15.08-23.52,15.17-23.74l1.03,0.4
			c-0.35,0.9-8.73,22.12-15.86,24.39C287.11,160.2,286.36,160.31,285.64,160.31z"/>
	</g>
	<g>
		<path class="st6" d="M303.24,76.79c0,0,3.8,0,7.92,7.92s6.02,7.92,6.02,14.25c0,6.33,0,10.13,0,10.13s3.8-8.55,11.71-4.75
			c7.92,3.8,12.03,19.95,12.03,19.95s-9.5-9.82-16.78-7.92c-7.28,1.9-12.98,9.82-12.98,9.82h6.97v9.18h-6.65
			c0,0,3.17,11.08,18.68,16.78c0,0-4.43,9.5-11.4,7.28s-15.51-24.06-15.51-24.06"/>
		<path d="M320.83,160.31c-0.72,0-1.47-0.11-2.25-0.36c-7.13-2.27-15.51-23.48-15.86-24.39l1.03-0.4
			c0.08,0.22,8.53,21.63,15.17,23.74c5.51,1.75,9.42-4.55,10.46-6.46c-15.1-5.79-18.31-16.47-18.44-16.93l-0.2-0.7h6.83v-8.08h-7.49
			l0.63-0.87c0.24-0.33,5.9-8.1,13.29-10.03c5.83-1.52,12.8,3.93,15.82,6.64c-1.37-4.36-5.19-14.77-11.17-17.64
			c-2.11-1.01-4.09-1.19-5.9-0.52c-3.35,1.23-5.06,4.96-5.07,5l-1.05,2.36V98.95c0-4.14-0.83-5.44-2.64-8.3
			c-0.88-1.39-1.98-3.13-3.31-5.69c-3.87-7.44-7.4-7.62-7.43-7.62l0.01-1.1c0.17,0,4.18,0.09,8.4,8.21c1.31,2.52,2.4,4.23,3.27,5.61
			c1.87,2.95,2.81,4.43,2.81,8.89v8.11c0.92-1.31,2.45-2.98,4.64-3.79c2.1-0.77,4.38-0.58,6.76,0.56
			c8.05,3.87,12.16,19.64,12.33,20.31l0.51,2.01l-1.44-1.49c-0.09-0.1-9.36-9.56-16.25-7.77c-5.58,1.46-10.29,6.65-11.99,8.73h6.39
			v10.28h-6.41c1.01,2.49,5.28,11.01,18.08,15.71l0.56,0.21l-0.25,0.54C330.61,152.46,326.87,160.31,320.83,160.31z"/>
	</g>
</g>
</svg>
